<?xml version="1.0" encoding="utf-8"?>
<!-- Generator: Adobe Illustrator 24.0.3, SVG Export Plug-In . SVG Version: 6.00 Build 0)  -->
<svg version="1.1" id="Layer_1" xmlns="http://www.w3.org/2000/svg" xmlns:xlink="http://www.w3.org/1999/xlink" x="0px" y="0px"
	 viewBox="0 0 20 34" style="enable-background:new 0 0 20 34;" xml:space="preserve">
<style type="text/css">
	.st0{fill:#FFFFFF;}
</style>
<path class="st0" d="M6.15,22.2c-0.07-0.34-0.07-0.68,0.07-0.96c0.27-0.96,0.82-1.84,1.43-2.73c0.34-0.48,0.75-0.89,1.16-1.23
	c2.25-2.12,4.5-2.93,5.73-3.14c-0.61-0.68-1.3-1.3-1.98-1.84c-0.2-0.14-0.41-0.34-0.68-0.41c-1.23-0.61-2.66-0.61-3.96,0
	c-0.2,0.14-0.48,0.27-0.68,0.41c-1.16,0.96-2.25,2.05-3.21,3.28c-0.75,1.16-1.5,2.25-2.12,3.41C2.19,19.54,3.62,21.18,6.15,22.2z
	 M17.68,10.53c-0.2-0.14-0.55-0.2-0.82-0.07c-0.2,0.14-0.41,0.34-0.41,0.61s-0.27,1.57,0.07,2.73c0.2,0.75,1.5,2.8,2.53,2.8h0.14
	c0.27-0.07,0.68-0.2,0.75-1.16L20,14.97C19.93,13.19,19.11,11.56,17.68,10.53z M0.82,16.54h0.14c1.02,0,2.25-2.05,2.53-2.8
	c0.34-1.16,0.14-2.53,0.07-2.73c-0.07-0.2-0.27-0.48-0.48-0.55c-0.27-0.14-0.61-0.14-0.82,0.07C0.75,11.56-0.06,13.19,0,14.9
	l0.07,0.48C0.07,16.33,0.55,16.54,0.82,16.54z M13.93,11.49h0.14c0.27-0.07,0.75-0.2,0.75-1.09l0.07-0.68
	c0.07-1.57-0.82-3.07-2.39-4.03l-0.27-0.14c-0.27-0.14-0.61-0.14-0.89-0.07c-0.2,0.14-0.41,0.34-0.41,0.55
	c-0.07,0.2-0.34,1.57,0.14,2.66C11.33,9.51,12.83,11.49,13.93,11.49z M5.05,10.4c0.07,0.89,0.48,1.02,0.75,1.16h0.14
	c1.09,0,2.59-1.98,2.87-2.73c0.41-1.16,0.14-2.46,0.14-2.66c-0.07-0.34-0.2-0.48-0.41-0.61C8.26,5.41,7.92,5.41,7.65,5.62l-0.2,0.14
	C5.87,6.64,4.99,8.21,5.05,9.71V10.4z M15.77,15.65c-0.2-0.34-0.48-0.61-0.75-0.89c-0.61-0.07-2.59,0.34-4.85,2.12
	c0.2,0.07,0.34,0.07,0.48,0.14c0.14,0.07,0.2,0.14,0.27,0.2c0.41,0.34,0.89,0.82,1.23,1.3c0.55,0.68,1.02,1.5,1.3,2.25
	c0.07,0.07,0.07,0.14,0.07,0.27c1.16,3.34,0.89,6.01,0.41,7.23c0.14-0.07,0.27-0.07,0.41-0.07c0.2-0.07,0.41-0.07,0.61-0.14
	c0.41-0.07,0.89-0.2,1.23-0.27c3.41-1.02,3.82-3.14,3.28-5.19C18.84,20.29,17.41,17.77,15.77,15.65z M12.42,23.29
	c-0.2,0.07-0.41,0.14-0.68,0.14c-1.16,0.2-2.32,0.2-3.48,0c-0.14,0-0.2-0.07-0.34-0.07c-0.2-0.07-0.34-0.07-0.41-0.07H7.44
	c-0.07,0-0.07,0-0.07-0.07c-3-0.82-5.05-2.59-5.73-3.69c0,0.07-0.07,0.07-0.07,0.07v0.07c-0.48,0.96-0.89,1.98-1.16,2.93
	c-0.61,2.12-0.14,4.16,3.28,5.19c0.48,0.14,1.09,0.27,1.77,0.41c2.59,0.41,5.25,0.48,7.85,0.14c0.34-0.61,0.89-2.66,0.14-5.73
	C13.24,22.88,12.97,23.16,12.42,23.29z"/>
</svg>
